<svg xmlns="http://www.w3.org/2000/svg" width="60" height="60" fill="none"><path fill="#F0F2F5" d="M0 0h60v60H0z"/><path fill="#B7B7B7" d="M38.189 28.934a8.211 8.211 0 0 1-7.19 4.259 8.198 8.198 0 0 1-7.186-4.263l3.93-3.93H16v11.743l2.896-2.896C21.628 37.574 26.034 40 30.998 40c4.969 0 9.378-2.426 12.11-6.15l-4.92-4.916Z"/><path fill="#4284F7" d="M31 10H19.257l2.897 2.898C18.426 15.629 16 20.035 16 25h6.806a8.198 8.198 0 0 1 4.265-7.185L31 21.743V10.002Z"/><path fill="#1839AD" d="M43.104 16.154c-2.732-3.726-7.137-6.152-12.106-6.152v6.807a8.202 8.202 0 0 1 7.188 4.263L34.257 25H46V13.258l-2.896 2.896Z"/><path fill="#000" d="M10.851 50v-4.364h1.637c.335 0 .616.063.843.188.23.125.402.297.518.516.118.217.177.464.177.741 0 .28-.059.528-.177.746a1.263 1.263 0 0 1-.522.513c-.23.124-.513.186-.85.186h-1.085v-.65h.979a1 1 0 0 0 .481-.103.645.645 0 0 0 .277-.28.89.89 0 0 0 .092-.412.877.877 0 0 0-.092-.41.623.623 0 0 0-.28-.274 1.024 1.024 0 0 0-.483-.1h-.724V50h-.79Zm3.827 0v-3.273h.748v.546h.034a.816.816 0 0 1 .808-.593 1.766 1.766 0 0 1 .277.022v.71a.815.815 0 0 0-.155-.03 1.423 1.423 0 0 0-.203-.015.78.78 0 0 0-.38.091.67.67 0 0 0-.357.618V50h-.771Zm2.38 0v-3.273h.77V50h-.77Zm.387-3.737a.45.45 0 0 1-.315-.122.391.391 0 0 1-.132-.296c0-.116.044-.215.132-.296a.446.446 0 0 1 .315-.124c.124 0 .229.042.316.124.088.081.132.18.132.296a.392.392 0 0 1-.132.296.445.445 0 0 1-.316.122Zm4.1.464L20.38 50h-.853l-1.165-3.273h.822l.752 2.431h.035l.754-2.43h.82Zm1.382 3.34c-.207 0-.394-.038-.56-.112a.915.915 0 0 1-.393-.332.973.973 0 0 1-.142-.541c0-.185.034-.338.102-.458a.791.791 0 0 1 .28-.29c.117-.073.25-.127.398-.164.149-.039.303-.066.462-.083.192-.02.347-.038.467-.054a.692.692 0 0 0 .26-.076c.055-.036.083-.09.083-.164v-.013a.483.483 0 0 0-.143-.373c-.095-.088-.232-.132-.411-.132-.19 0-.34.041-.45.123a.613.613 0 0 0-.221.292l-.72-.102a1.15 1.15 0 0 1 .28-.498c.131-.136.291-.236.48-.303.189-.068.398-.102.626-.102.158 0 .315.018.471.055.157.037.3.098.428.183a.92.92 0 0 1 .312.343c.08.145.119.326.119.544V50h-.742v-.45h-.025a.942.942 0 0 1-.516.446c-.126.047-.275.07-.445.07Zm.2-.568a.84.84 0 0 0 .403-.091.677.677 0 0 0 .262-.248.63.63 0 0 0 .094-.334v-.386a.361.361 0 0 1-.124.056c-.057.017-.12.032-.192.044a5.988 5.988 0 0 1-.392.06 1.351 1.351 0 0 0-.309.077.515.515 0 0 0-.215.149.365.365 0 0 0-.079.243c0 .142.052.25.156.322a.676.676 0 0 0 .396.108Zm3.731.565a1.58 1.58 0 0 1-.842-.215 1.437 1.437 0 0 1-.539-.595 1.966 1.966 0 0 1-.187-.878c0-.332.064-.625.192-.88s.308-.454.54-.596a1.56 1.56 0 0 1 .832-.215c.265 0 .5.049.705.147.206.096.37.233.492.41.122.177.192.383.209.619h-.737a.704.704 0 0 0-.213-.394.615.615 0 0 0-.446-.16.696.696 0 0 0-.415.128.818.818 0 0 0-.28.362 1.478 1.478 0 0 0-.097.567c0 .223.033.414.098.575a.84.84 0 0 0 .275.368c.119.086.259.128.42.128a.699.699 0 0 0 .304-.064.612.612 0 0 0 .228-.19.728.728 0 0 0 .126-.3h.737a1.212 1.212 0 0 1-.686 1.033c-.203.1-.442.15-.716.15Zm2.515 1.163a1.557 1.557 0 0 1-.503-.08l.179-.602c.112.033.212.049.3.047a.368.368 0 0 0 .233-.083.589.589 0 0 0 .172-.264l.066-.177-1.187-3.34h.819l.754 2.47h.034l.756-2.47h.82l-1.31 3.668a1.47 1.47 0 0 1-.243.446.986.986 0 0 1-.37.285c-.145.067-.319.1-.52.1Zm4.961-3.362v.635H32.37v-.635h1.964Zm.384-1.566v-.663H38.2v.663h-1.35V50h-.783v-3.701h-1.349Zm5.093 3.765c-.328 0-.611-.068-.85-.205a1.385 1.385 0 0 1-.548-.583 1.955 1.955 0 0 1-.191-.893c0-.337.063-.632.191-.887.13-.255.31-.454.542-.596.231-.144.503-.215.816-.215.201 0 .392.032.57.098.18.064.34.163.478.298.139.135.248.307.328.516.08.207.12.454.12.741v.237h-2.683v-.52h1.943a.83.83 0 0 0-.096-.395.696.696 0 0 0-.262-.274.736.736 0 0 0-.388-.1.751.751 0 0 0-.415.115.792.792 0 0 0-.28.298.857.857 0 0 0-.1.403v.453c0 .19.035.354.105.49.07.135.167.24.292.311a.873.873 0 0 0 .439.107.934.934 0 0 0 .304-.047c.091-.032.17-.08.237-.143a.594.594 0 0 0 .151-.232l.72.081c-.045.19-.132.357-.26.499-.126.14-.288.25-.485.328a1.86 1.86 0 0 1-.678.115ZM41.919 50v-3.273h.748v.546h.034a.817.817 0 0 1 .807-.593 1.761 1.761 0 0 1 .277.022v.71a.814.814 0 0 0-.155-.03 1.423 1.423 0 0 0-.203-.015.78.78 0 0 0-.379.091.67.67 0 0 0-.358.618V50h-.771Zm2.379 0v-3.273h.737v.556h.038a.869.869 0 0 1 .339-.439.984.984 0 0 1 .565-.16c.221 0 .408.055.56.163a.847.847 0 0 1 .324.436h.034a.895.895 0 0 1 .366-.434c.174-.11.379-.164.616-.164.301 0 .547.095.737.285.19.19.286.468.286.833V50h-.773v-2.077c0-.204-.055-.352-.162-.446a.578.578 0 0 0-.397-.142.559.559 0 0 0-.436.174.646.646 0 0 0-.156.45V50h-.757v-2.11a.543.543 0 0 0-.153-.404.536.536 0 0 0-.396-.151.56.56 0 0 0-.303.085.595.595 0 0 0-.217.236.74.74 0 0 0-.081.354V50h-.771Zm7.971-2.408-.703.077a.564.564 0 0 0-.104-.2.517.517 0 0 0-.197-.151.713.713 0 0 0-.302-.058.74.74 0 0 0-.405.104c-.108.07-.161.16-.16.27a.283.283 0 0 0 .105.233c.072.06.191.109.358.147l.558.12c.31.066.54.172.69.317a.757.757 0 0 1 .23.569.89.89 0 0 1-.18.545 1.162 1.162 0 0 1-.493.367 1.86 1.86 0 0 1-.724.132c-.4 0-.723-.084-.968-.252a1.01 1.01 0 0 1-.436-.705l.752-.072a.53.53 0 0 0 .217.334c.11.076.255.113.433.113.183 0 .33-.037.44-.113.113-.075.169-.168.169-.279a.29.29 0 0 0-.109-.232.759.759 0 0 0-.332-.14l-.558-.118c-.314-.065-.546-.175-.697-.33a.812.812 0 0 1-.224-.592.839.839 0 0 1 .164-.525c.113-.149.268-.264.467-.345.2-.082.431-.123.692-.123.384 0 .686.081.906.245.222.163.359.384.411.662Z"/></svg>