<svg xmlns="http://www.w3.org/2000/svg" width="263" height="30" fill="none"><g clip-path="url(#a)"><path fill="#fff" d="M1.482 14.862c0-2.09 1.523-5.13 6.557-5.13 2.618 0 4.848 1.188 5.994 2.944L17.734 9.3c-2.513-3.088-6.032-3.846-9.695-3.846C4.474 5.455 1.836 6.52 0 8.05v14.426c4.554 3.54 12.214 3.03 13.122 7.524H1.498 28.502 18.051c-.373-11.593-16.569-6.729-16.569-15.138Z"/><path fill="#C30044" d="M0 22.476V28.5A1.5 1.5 0 0 0 1.498 30h11.624C12.214 25.506 4.554 26.017 0 22.476ZM28.5 0h-27A1.5 1.5 0 0 0 0 1.5v6.55c1.836-1.53 4.474-2.596 8.04-2.596 3.662 0 7.181.758 9.694 3.846l-3.701 3.375c-1.146-1.755-3.376-2.944-5.994-2.944-5.034 0-6.557 3.041-6.557 5.131 0 8.41 16.196 3.545 16.569 15.138h10.451A1.5 1.5 0 0 0 30 28.5v-27A1.5 1.5 0 0 0 28.5 0Z"/><path fill="#000" d="M38.68 22.42c-1.012-.46-1.814-1.084-2.404-1.871a4.74 4.74 0 0 1-.97-2.616h3.965c.075.6.37 1.097.886 1.49.515.395 1.158.592 1.927.592.75 0 1.335-.15 1.757-.45.422-.3.633-.685.633-1.154 0-.506-.258-.886-.773-1.139-.516-.253-1.336-.53-2.461-.83-1.163-.28-2.114-.571-2.855-.871a4.95 4.95 0 0 1-1.912-1.378c-.535-.62-.802-1.453-.802-2.503 0-.863.248-1.65.745-2.363.497-.712 1.21-1.275 2.138-1.688.928-.412 2.02-.618 3.276-.618 1.857 0 3.338.464 4.444 1.392 1.106.928 1.716 2.18 1.828 3.755h-3.768c-.057-.62-.315-1.111-.774-1.477-.46-.366-1.073-.548-1.842-.548-.713 0-1.261.131-1.645.393a1.256 1.256 0 0 0-.577 1.097c0 .525.262.924.787 1.196.525.271 1.34.548 2.447.83 1.125.28 2.053.571 2.785.871.731.3 1.364.764 1.898 1.392.535.629.81 1.458.83 2.49 0 .9-.249 1.706-.745 2.418-.497.713-1.21 1.27-2.138 1.674-.928.403-2.01.604-3.248.604-1.276 0-2.42-.23-3.432-.689ZM86.957 10.818c.628-1.22 1.48-2.156 2.559-2.813 1.078-.656 2.282-.984 3.614-.984 1.162 0 2.18.234 3.052.703.871.469 1.57 1.06 2.095 1.772V7.274h3.966v15.581h-3.966v-2.278c-.506.731-1.205 1.336-2.095 1.814-.891.478-1.918.717-3.08.717-1.313 0-2.508-.337-3.586-1.012-1.078-.675-1.931-1.627-2.56-2.855-.628-1.228-.942-2.639-.942-4.233 0-1.575.314-2.971.943-4.19Zm10.757 1.786a3.972 3.972 0 0 0-1.518-1.576 4.06 4.06 0 0 0-2.053-.548 3.99 3.99 0 0 0-2.025.534c-.62.357-1.121.877-1.505 1.561-.385.685-.577 1.496-.577 2.433 0 .937.192 1.758.577 2.461.384.703.89 1.242 1.519 1.617a3.855 3.855 0 0 0 2.01.563c.732 0 1.416-.183 2.054-.549a3.968 3.968 0 0 0 1.518-1.575c.375-.684.563-1.504.563-2.46 0-.957-.188-1.777-.563-2.461ZM111.313 7.752c.815-.469 1.748-.703 2.798-.703v4.134h-1.041c-1.237 0-2.17.291-2.798.872-.628.582-.942 1.594-.942 3.038v7.762h-3.938V7.274h3.938v2.419a5.533 5.533 0 0 1 1.983-1.941ZM130.423 16.246h-11.39c.093 1.125.487 2.006 1.181 2.643.693.638 1.547.957 2.559.957 1.463 0 2.503-.628 3.122-1.885h4.247c-.45 1.5-1.313 2.733-2.587 3.699-1.276.966-2.841 1.448-4.697 1.448-1.5 0-2.846-.332-4.036-.998a7.026 7.026 0 0 1-2.785-2.827c-.665-1.219-.998-2.625-.998-4.219 0-1.612.328-3.027.984-4.247a6.868 6.868 0 0 1 2.757-2.812c1.181-.656 2.54-.984 4.078-.984 1.481 0 2.807.319 3.979.956a6.735 6.735 0 0 1 2.729 2.714c.646 1.172.97 2.517.97 4.036a9.29 9.29 0 0 1-.113 1.519Zm-3.965-2.644c-.019-1.013-.385-1.823-1.097-2.433-.713-.609-1.585-.914-2.616-.914-.975 0-1.795.295-2.461.886-.665.59-1.073 1.411-1.223 2.46h7.397ZM132.631 10.818c.628-1.219 1.486-2.156 2.573-2.813 1.087-.656 2.297-.984 3.628-.984 1.013 0 1.978.22 2.897.66.919.441 1.65 1.027 2.194 1.758V1.342h3.994v21.513h-3.994v-2.306c-.488.769-1.172 1.388-2.053 1.856-.882.469-1.903.703-3.066.703a6.693 6.693 0 0 1-3.6-1.012c-1.087-.675-1.945-1.627-2.573-2.855-.629-1.228-.942-2.639-.942-4.233 0-1.575.313-2.971.942-4.19Zm10.758 1.786a3.978 3.978 0 0 0-1.519-1.575 4.061 4.061 0 0 0-2.053-.549 3.99 3.99 0 0 0-2.025.534c-.619.357-1.121.877-1.505 1.561-.384.685-.577 1.496-.577 2.433 0 .938.193 1.758.577 2.461.384.703.89 1.242 1.519 1.617a3.855 3.855 0 0 0 2.011.563c.731 0 1.415-.183 2.053-.549a3.976 3.976 0 0 0 1.519-1.575c.374-.684.562-1.504.562-2.46 0-.957-.188-1.777-.562-2.461ZM49.762 15.123c0-1.594.313-3.005.942-4.233.628-1.228 1.486-2.18 2.573-2.855a6.691 6.691 0 0 1 3.6-1.012c1.162 0 2.184.235 3.066.703.881.469 1.565 1.087 2.053 1.856V7.276h3.994V28.79h-3.994v-8.097c-.544.731-1.275 1.317-2.194 1.758a6.623 6.623 0 0 1-2.897.66c-1.331 0-2.54-.328-3.628-.984-1.087-.656-1.945-1.594-2.573-2.812-.629-1.22-.942-2.616-.942-4.191Zm12.262-.056c0-.957-.188-1.777-.562-2.461a3.967 3.967 0 0 0-1.52-1.575 4.06 4.06 0 0 0-2.052-.549c-.713 0-1.383.188-2.011.563-.628.375-1.135.914-1.519 1.617-.385.703-.577 1.523-.577 2.461s.192 1.748.577 2.433c.384.684.886 1.204 1.505 1.56a3.99 3.99 0 0 0 2.025.535 4.06 4.06 0 0 0 2.053-.548 3.97 3.97 0 0 0 1.519-1.575c.374-.685.562-1.505.562-2.461ZM157.564 9.552h-3.235v13.303h-2.559V9.552h-1.997v-2.11h1.997V6.347c0-1.725.445-2.986 1.336-3.783.89-.797 2.32-1.195 4.289-1.195v2.137c-1.125 0-1.918.22-2.377.661-.459.44-.689 1.167-.689 2.18v1.097h3.235v2.109ZM178.123 8.863c1.162 1.135 1.743 2.77 1.743 4.908v9.084h-2.531v-8.719c0-1.537-.384-2.714-1.153-3.53-.769-.815-1.819-1.223-3.15-1.223-1.35 0-2.424.422-3.22 1.266-.798.844-1.196 2.072-1.196 3.684v8.522h-2.559V7.442h2.559v2.194a5.087 5.087 0 0 1 2.067-1.828c.872-.431 1.833-.647 2.883-.647 1.875 0 3.394.568 4.557 1.702ZM183.354 10.944c.637-1.19 1.514-2.114 2.629-2.77 1.116-.656 2.358-.985 3.727-.985 1.35 0 2.522.291 3.516.872.993.582 1.734 1.313 2.221 2.194V7.443h2.588v15.412h-2.588v-2.869c-.506.9-1.261 1.646-2.264 2.236-1.003.59-2.17.886-3.501.886-1.369 0-2.607-.337-3.713-1.012-1.106-.675-1.978-1.622-2.615-2.841-.638-1.219-.957-2.606-.957-4.162 0-1.575.319-2.958.957-4.149Zm11.39 1.14c-.469-.863-1.101-1.524-1.898-1.984a5.175 5.175 0 0 0-2.63-.689c-.956 0-1.828.225-2.615.675-.788.45-1.416 1.107-1.885 1.969-.469.863-.703 1.875-.703 3.037 0 1.182.234 2.208.703 3.08.469.872 1.097 1.538 1.885 1.997.787.46 1.659.69 2.615.69a5.17 5.17 0 0 0 2.63-.69c.797-.46 1.429-1.125 1.898-1.997.469-.872.703-1.889.703-3.051 0-1.163-.234-2.175-.703-3.038ZM213.729 8.863c1.162 1.135 1.743 2.77 1.743 4.908v9.084h-2.531v-8.719c0-1.537-.384-2.714-1.153-3.53-.769-.815-1.819-1.223-3.15-1.223-1.35 0-2.424.422-3.22 1.266-.798.844-1.196 2.072-1.196 3.684v8.522h-2.559V7.442h2.559v2.194a5.093 5.093 0 0 1 2.067-1.828c.872-.431 1.833-.647 2.883-.647 1.875 0 3.394.568 4.557 1.702ZM218.96 10.944c.637-1.19 1.523-2.114 2.658-2.77 1.134-.656 2.433-.985 3.895-.985 1.894 0 3.454.46 4.683 1.378 1.228.92 2.039 2.194 2.433 3.825h-2.757c-.262-.937-.773-1.677-1.532-2.221-.76-.544-1.702-.816-2.827-.816-1.462 0-2.644.502-3.544 1.505-.9 1.003-1.35 2.423-1.35 4.26 0 1.857.45 3.291 1.35 4.304.9 1.012 2.082 1.518 3.544 1.518 1.125 0 2.062-.262 2.813-.787.749-.525 1.265-1.275 1.546-2.25h2.757c-.413 1.575-1.238 2.836-2.475 3.783-1.238.947-2.785 1.42-4.641 1.42-1.462 0-2.761-.328-3.895-.984-1.135-.656-2.021-1.584-2.658-2.785-.638-1.2-.956-2.605-.956-4.218 0-1.594.318-2.986.956-4.177ZM241.544 10.944c.637-1.19 1.513-2.114 2.629-2.77 1.116-.656 2.358-.985 3.727-.985 1.35 0 2.521.291 3.516.872.993.582 1.734 1.313 2.221 2.194V7.443h2.588v15.412h-2.588v-2.869c-.506.9-1.261 1.646-2.264 2.236-1.003.59-2.17.886-3.501.886-1.369 0-2.607-.337-3.713-1.012-1.106-.675-1.978-1.622-2.615-2.841-.638-1.219-.957-2.606-.957-4.162 0-1.575.319-2.958.957-4.149Zm11.39 1.14c-.469-.863-1.102-1.524-1.898-1.984a5.175 5.175 0 0 0-2.63-.689c-.956 0-1.828.225-2.615.675-.788.45-1.416 1.107-1.885 1.969-.469.863-.703 1.875-.703 3.037 0 1.182.234 2.208.703 3.08.469.872 1.097 1.538 1.885 1.997.787.46 1.659.69 2.615.69a5.17 5.17 0 0 0 2.63-.69c.796-.46 1.429-1.125 1.898-1.997.469-.872.703-1.889.703-3.051 0-1.163-.234-2.175-.703-3.038ZM262.412 1.342v21.513h-2.559V1.342h2.559ZM159.912 4.433a1.68 1.68 0 0 1-.506-1.237c0-.488.168-.9.506-1.238.337-.337.75-.506 1.237-.506.469 0 .867.169 1.196.506.327.338.492.75.492 1.238 0 .487-.165.9-.492 1.237a1.607 1.607 0 0 1-1.196.506c-.487 0-.9-.168-1.237-.506Zm2.475 3.01v15.412h-2.56V7.443h2.56ZM79.883 7.274v8.578c0 .226-.01.443-.031.65-.093.926-.392 1.661-.897 2.205-.619.665-1.472.998-2.56.998-1.068 0-1.912-.333-2.53-.998-.506-.544-.805-1.279-.897-2.204a6.556 6.556 0 0 1-.032-.651V7.274h-3.982v8.096c0 1.528.32 2.877.958 4.045a6.732 6.732 0 0 0 2.67 2.71c1.12.628 2.385.946 3.793.957H76.385c1.408-.011 2.672-.33 3.793-.956a6.73 6.73 0 0 0 2.67-2.71c.638-1.17.957-2.518.957-4.046V7.274h-3.92ZM235.413 4.433a1.682 1.682 0 0 1-.507-1.237c0-.488.169-.9.507-1.238a1.68 1.68 0 0 1 1.237-.506c.469 0 .867.169 1.195.506.328.338.493.75.493 1.238 0 .487-.165.9-.493 1.237a1.604 1.604 0 0 1-1.195.506c-.488 0-.9-.168-1.237-.506Zm2.475 3.01v15.412h-2.56V7.443h2.56Z"/></g><defs><clipPath id="a"><path fill="#fff" d="M0 0h262.412v30H0z"/></clipPath></defs></svg>