<svg width="66" height="64" viewBox="0 0 66 64" fill="none" xmlns="http://www.w3.org/2000/svg">
<path d="M61.213 40.656L50.4008 51.4676L45.7869 46.8538C44.9121 45.9792 43.4936 45.9792 42.619 46.8538C41.7442 47.7289 41.7442 49.1471 42.619 50.022L48.8168 56.2198C49.2541 56.657 49.8276 56.8757 50.4008 56.8757C50.974 56.8757 51.5474 56.657 51.9847 56.2198L64.3806 43.8242C65.2557 42.9493 65.2557 41.5309 64.3809 40.6563C63.5063 39.7814 62.0878 39.7811 61.213 40.656Z" fill="#C30044"/>
<path d="M46.9091 32.1136C45.6792 31.529 44.4243 31.0254 43.1475 30.6035C47.2828 27.4995 49.9628 22.5569 49.9628 17C49.9628 7.62625 42.3367 0 32.9628 0C23.589 0 15.9628 7.62625 15.9628 17C15.9628 22.563 18.6488 27.5105 22.792 30.6139C18.996 31.8636 15.4341 33.8083 12.3166 36.3725C6.60009 41.0746 2.62547 47.6332 1.12509 54.8404C0.654842 57.0986 1.21822 59.4181 2.67047 61.2039C4.11559 62.9809 6.25847 64 8.54947 64H39.3378C40.7186 64 41.8378 62.8807 41.8378 61.5C41.8378 60.1193 40.7186 59 39.3378 59H8.54947C7.48222 59 6.83834 58.4043 6.54959 58.0493C6.05097 57.4361 5.85797 56.638 6.02009 55.8594C8.61447 43.3975 19.6065 34.2943 32.3001 33.9873C32.52 33.9958 32.7408 34 32.9628 34C33.187 34 33.4101 33.9956 33.6321 33.987C37.5221 34.0783 41.2633 34.966 44.7626 36.6295C46.0097 37.222 47.501 36.6919 48.0937 35.4448C48.6865 34.1978 48.1562 32.7064 46.9091 32.1136ZM33.5726 28.9846C33.3697 28.981 33.1665 28.9791 32.9628 28.9791C32.7611 28.9791 32.5593 28.9811 32.3578 28.9849C26.021 28.6687 20.9628 23.414 20.9628 17C20.9628 10.3831 26.346 5 32.9628 5C39.5797 5 44.9628 10.3831 44.9628 17C44.9628 23.4124 39.9072 28.6661 33.5726 28.9846Z" fill="#C30044"/>
</svg>
